<?xml version="1.0" standalone="no"?>
<!DOCTYPE svg PUBLIC "-//W3C//DTD SVG 20010904//EN"
 "http://www.w3.org/TR/2001/REC-SVG-20010904/DTD/svg10.dtd">
<svg version="1.0" xmlns="http://www.w3.org/2000/svg"
 width="1280.000000pt" height="1020.000000pt" viewBox="0 0 1280.000000 1020.000000"
 preserveAspectRatio="xMidYMid meet">
<metadata>
Created by potrace 1.15, written by Peter Selinger 2001-2017
</metadata>
<g transform="translate(0.000000,1020.000000) scale(0.100000,-0.100000)"
fill="#000000" stroke="none">
<path d="M6895 10193 c-603 -17 -1249 -56 -2855 -173 -981 -71 -988 -71 -1675
-68 -484 2 -664 0 -740 -10 -415 -54 -667 -120 -913 -237 -378 -181 -571 -376
-643 -650 -17 -64 -21 -111 -22 -235 -1 -193 19 -317 109 -665 35 -137 91
-353 123 -480 74 -286 93 -383 175 -870 121 -726 146 -949 153 -1360 9 -554
-30 -758 -302 -1565 -152 -451 -215 -664 -255 -859 -60 -297 -62 -377 -20
-751 30 -271 51 -549 70 -929 17 -344 50 -529 128 -708 153 -356 447 -539 982
-614 123 -18 652 -18 810 -1 468 52 842 129 1314 272 373 113 696 234 1431
535 277 113 461 182 590 222 756 229 1684 293 2790 192 916 -83 1064 -116
1900 -419 722 -262 954 -324 1290 -349 589 -44 1147 204 1345 598 87 175 115
321 114 606 0 236 -12 349 -80 785 -116 738 -107 655 -108 970 0 240 3 310 21
445 22 160 35 287 73 700 44 489 53 666 53 1045 0 624 -37 895 -243 1755 -161
674 -161 674 -158 1082 2 310 1 332 -20 406 -29 106 -80 199 -153 280 -316
350 -1051 627 -2184 822 -956 165 -2165 254 -3100 228z m500 -98 c731 -20
1774 -138 2770 -315 326 -58 925 -234 1245 -364 231 -95 531 -267 618 -356
191 -193 190 -444 -2 -674 -113 -136 -335 -267 -523 -310 -133 -30 -658 -60
-913 -53 -435 13 -716 96 -944 277 -66 52 -176 169 -176 188 0 4 -5 38 -10 75
-30 205 77 389 282 487 188 90 397 110 616 59 119 -27 128 -36 37 -37 -104 -1
-163 -16 -274 -69 -76 -36 -108 -59 -170 -121 -227 -227 -209 -474 42 -604 21
-10 93 -38 160 -61 120 -41 125 -42 257 -42 160 0 251 21 399 90 208 99 340
231 377 377 38 148 -38 267 -251 393 -386 229 -853 255 -1220 69 -131 -66
-235 -160 -316 -282 -63 -97 -86 -159 -116 -327 -13 -77 -53 -277 -88 -445
-106 -509 -135 -757 -115 -1000 13 -165 28 -239 85 -442 160 -567 280 -1154
339 -1658 56 -479 54 -404 41 -2272 l-7 -977 33 -48 c109 -162 239 -263 441
-347 180 -75 391 -116 828 -160 135 -14 268 -32 297 -40 81 -22 200 -29 303
-17 329 37 624 200 722 399 30 60 33 76 33 152 0 77 -3 92 -34 155 -24 48 -57
92 -110 145 -67 67 -86 80 -160 109 -125 49 -209 64 -351 64 -288 1 -544 -101
-749 -297 -104 -100 -201 -242 -201 -294 0 -31 52 -100 108 -141 59 -45 155
-84 263 -108 112 -25 340 -22 443 6 202 54 307 147 310 276 1 83 -8 100 -69
130 -45 22 -65 27 -108 23 -102 -8 -247 -99 -247 -155 0 -20 5 -23 41 -23 22
0 70 12 106 26 l66 27 18 -24 c56 -72 44 -129 -36 -169 -44 -22 -65 -25 -182
-28 -244 -7 -469 66 -534 171 -24 41 -24 107 0 155 34 66 179 204 256 244 123
64 208 82 380 83 128 0 162 -3 230 -23 179 -52 307 -146 367 -271 27 -57 33
-80 36 -161 l4 -95 -40 -51 c-116 -146 -298 -216 -567 -217 -162 0 -234 8
-595 69 -146 25 -328 49 -405 54 -77 5 -158 14 -180 21 -245 70 -481 283 -542
489 -70 239 76 423 393 495 633 142 1283 129 1790 -36 78 -26 151 -58 201 -89
238 -147 419 -409 478 -696 21 -102 21 -280 0 -370 -20 -88 -82 -215 -135
-279 -79 -94 -144 -140 -243 -173 -159 -52 -228 -64 -432 -69 -300 -8 -496 27
-1020 182 -348 103 -475 139 -590 166 -49 11 -173 49 -275 84 -284 96 -592
170 -891 215 -278 41 -434 52 -854 60 -231 5 -517 15 -635 24 -753 52 -1318
13 -1782 -124 -199 -58 -571 -186 -858 -295 -638 -242 -789 -297 -990 -363
-357 -118 -555 -167 -907 -226 -253 -43 -296 -51 -593 -115 -474 -101 -692
-128 -950 -117 -153 6 -302 29 -404 62 -113 37 -281 177 -330 275 -56 114 30
117 213 9 188 -111 512 -173 791 -150 376 30 685 132 1375 455 138 64 310 141
382 170 374 152 592 361 685 655 19 63 23 95 22 205 -1 120 -4 140 -38 253
-66 220 -79 373 -51 588 24 180 46 270 179 726 36 125 77 284 91 353 49 239
81 747 71 1100 -14 476 -38 740 -160 1755 -60 495 -89 777 -106 1025 -12 166
-41 305 -176 830 -99 390 -217 668 -369 871 -112 150 -284 259 -705 447 -183
81 -220 99 -220 107 0 3 163 16 363 29 199 12 639 42 977 67 1696 122 2750
180 3080 168 52 -2 190 -6 305 -9z m-5461 -245 c-15 -15 -157 -49 -564 -135
-397 -84 -422 -91 -523 -141 -156 -78 -286 -181 -505 -399 -99 -100 -172 -166
-172 -156 0 9 9 49 20 89 88 315 325 515 746 626 250 65 425 91 738 107 116 6
213 12 215 15 2 2 16 4 30 4 17 0 22 -3 15 -10z m466 -91 c433 -108 746 -262
968 -473 112 -108 177 -192 238 -311 l46 -90 -5 -85 c-11 -165 -71 -293 -197
-420 -164 -163 -371 -272 -870 -457 -294 -108 -564 -179 -820 -214 -155 -22
-433 -17 -568 10 -242 47 -444 143 -595 281 -48 44 -57 58 -57 86 0 43 27 59
84 50 22 -4 135 -47 251 -96 339 -143 326 -141 690 -122 336 17 594 80 828
199 242 124 400 281 506 502 35 74 36 79 35 191 0 132 -16 186 -86 291 -165
246 -592 377 -1013 309 -573 -91 -1016 -295 -1221 -562 -80 -103 -144 -266
-144 -365 0 -24 -3 -43 -7 -43 -15 0 -86 122 -111 188 -33 89 -41 246 -18 345
33 141 124 291 229 381 82 69 153 110 277 159 309 121 656 202 1140 266 211
28 236 26 420 -20z m-140 -452 c111 -36 147 -53 237 -113 108 -72 193 -166
246 -272 38 -77 42 -92 45 -177 4 -75 0 -107 -17 -164 -73 -241 -359 -454
-712 -529 -238 -52 -460 -54 -754 -10 l-80 12 93 8 c126 10 236 40 362 100
216 101 347 238 358 373 6 71 -12 120 -66 177 -91 97 -251 171 -372 172 -84 0
-160 -26 -180 -63 -25 -49 70 -88 192 -80 43 3 119 -44 195 -119 150 -150 94
-298 -148 -392 -119 -46 -234 -64 -399 -63 -160 0 -252 18 -352 69 -76 38
-187 154 -229 240 -31 63 -34 76 -34 159 0 80 3 97 31 155 88 181 316 351 610
453 142 49 241 67 458 82 269 19 421 13 516 -18z m8237 -352 c48 -20 71 -41
93 -85 40 -78 33 -168 -16 -217 -22 -22 -32 -25 -70 -20 -24 2 -56 12 -70 22
l-26 17 48 49 c26 27 45 51 42 55 -17 16 -161 -70 -223 -133 -52 -54 -45 -84
22 -96 48 -9 258 11 301 28 74 31 124 99 167 225 48 142 69 150 155 60 79 -82
102 -134 108 -240 4 -79 2 -89 -25 -140 -70 -132 -265 -209 -498 -196 -324 18
-561 179 -590 401 -5 43 -2 58 22 105 50 99 155 152 334 169 134 13 187 12
226 -4z m-6668 -385 c163 -432 263 -988 306 -1695 6 -99 16 -188 74 -645 85
-673 111 -992 118 -1452 6 -418 -3 -621 -43 -916 -39 -295 -118 -636 -195
-844 -100 -273 -114 -351 -106 -593 3 -88 17 -245 31 -350 26 -184 50 -465 41
-473 -2 -3 -37 26 -77 62 -78 72 -231 179 -338 238 -353 194 -912 317 -1450
319 -640 2 -1324 -273 -1729 -695 -35 -37 -65 -65 -67 -63 -6 5 -41 256 -63
447 -35 302 -44 487 -38 754 9 413 53 645 195 1046 108 301 278 856 326 1060
85 359 107 723 60 975 -8 44 -19 166 -23 270 -9 203 -27 339 -92 702 -71 398
-77 436 -93 558 -29 220 -15 444 29 461 7 3 26 -1 42 -9 50 -26 210 -75 320
-99 95 -20 135 -23 338 -23 196 0 249 4 360 24 255 45 498 117 800 236 513
203 834 378 1024 560 77 74 171 197 186 246 10 31 21 14 64 -101z m5689 -379
c173 -128 385 -206 662 -246 154 -22 465 -29 680 -16 102 7 246 14 320 17 174
7 236 27 440 140 305 168 354 185 406 141 l29 -25 0 -134 1 -133 81 -320 c160
-624 227 -968 288 -1470 63 -528 57 -864 -35 -1795 -75 -763 -94 -1137 -70
-1420 7 -82 27 -186 70 -360 68 -274 85 -405 56 -429 -26 -22 -91 15 -185 104
-66 63 -93 81 -163 109 -165 67 -344 113 -559 143 -155 22 -621 25 -809 5
-218 -23 -470 -62 -534 -83 -33 -11 -145 -63 -248 -115 -243 -122 -290 -132
-329 -71 -19 29 -20 43 -15 147 3 63 7 275 10 470 2 195 7 607 11 915 11 788
-4 1041 -95 1600 -44 270 -59 341 -175 805 -57 228 -115 469 -129 535 -103
494 -99 894 14 1249 16 50 38 141 50 201 12 61 26 133 31 162 l10 52 60 -64
c34 -35 91 -87 127 -114z m-7158 -6076 c691 -67 1152 -238 1488 -552 61 -57
62 -60 62 -110 0 -133 -54 -237 -168 -323 -86 -64 -180 -113 -367 -190 -82
-34 -231 -101 -330 -150 -517 -255 -933 -383 -1290 -397 -223 -9 -437 25 -609
98 -43 18 -88 29 -116 29 -106 0 -260 62 -364 147 -78 63 -158 170 -198 263
-30 69 -32 84 -33 185 0 105 2 114 33 177 49 100 147 177 277 218 22 7 94 36
160 65 418 183 866 276 1190 246 329 -31 572 -141 763 -346 95 -101 144 -197
150 -291 5 -85 -7 -130 -55 -201 -82 -123 -297 -239 -568 -307 -182 -46 -476
-61 -605 -31 -250 58 -524 197 -648 329 -141 149 -118 272 67 366 32 16 79 43
103 59 219 148 718 121 871 -48 88 -97 46 -200 -143 -352 -25 -20 -42 -40 -38
-44 22 -23 189 95 292 206 127 137 155 243 85 315 -34 35 -74 51 -199 81 -93
22 -375 25 -490 4 -383 -67 -659 -210 -748 -386 -28 -56 -36 -105 -27 -173 6
-52 11 -61 60 -107 143 -137 390 -265 618 -320 303 -74 609 -48 899 75 39 17
111 38 162 49 229 47 402 187 468 379 34 99 32 251 -5 345 -84 215 -257 343
-590 436 -533 150 -1190 11 -1916 -404 -63 -35 -116 -63 -118 -61 -2 2 23 44
56 92 70 105 204 238 315 314 167 112 403 207 650 260 300 65 575 83 856 55z"/>
</g>
</svg>
